<svg xmlns="http://www.w3.org/2000/svg" viewBox="0 0 800 400" preserveAspectRatio="xMidYMid slice">
  <defs>
    <linearGradient id="nightSky" x1="0%" y1="0%" x2="0%" y2="100%">
      <stop offset="0%" style="stop-color:#020617"/>
      <stop offset="50%" style="stop-color:#0f172a"/>
      <stop offset="100%" style="stop-color:#1e293b"/>
    </linearGradient>
    <radialGradient id="moonGlow" cx="72%" cy="28%" r="30%">
      <stop offset="0%" style="stop-color:#fef3c7;stop-opacity:0.3"/>
      <stop offset="100%" style="stop-color:#fef3c7;stop-opacity:0"/>
    </radialGradient>
  </defs>
  <rect width="800" height="400" fill="url(#nightSky)"/>
  <rect width="800" height="400" fill="url(#moonGlow)"/>
  <g fill="#f1f5f9" opacity="0.8">
    <circle cx="120" cy="80" r="1.5"/>
    <circle cx="200" cy="50" r="1"/>
    <circle cx="280" cy="90" r="1.5"/>
    <circle cx="350" cy="60" r="1"/>
    <circle cx="430" cy="85" r="1.5"/>
    <circle cx="80" cy="140" r="1"/>
    <circle cx="160" cy="170" r="1"/>
    <circle cx="320" cy="140" r="1.5"/>
    <circle cx="700" cy="60" r="1"/>
    <circle cx="750" cy="120" r="1.5"/>
    <circle cx="680" cy="180" r="1"/>
    <circle cx="50" cy="200" r="1"/>
    <circle cx="240" cy="210" r="1"/>
    <circle cx="400" cy="180" r="1"/>
    <circle cx="520" cy="200" r="1.5"/>
  </g>
  <g fill="#94a3b8" opacity="0.3">
    <circle cx="100" cy="75" r="0.8"/>
    <circle cx="260" cy="85" r="0.8"/>
    <circle cx="380" cy="55" r="0.8"/>
    <circle cx="720" cy="55" r="0.8"/>
    <circle cx="180" cy="165" r="0.8"/>
    <circle cx="340" cy="135" r="0.8"/>
  </g>
  <path d="M 0 340 Q 200 310 400 330 T 800 320 L 800 400 L 0 400 Z" fill="#020617" opacity="0.5"/>
</svg>
